<?xml version="1.0" encoding="UTF-8"?>
<svg width="24px" height="24px" viewBox="0 0 24 24" version="1.1" xmlns="http://www.w3.org/2000/svg" xmlns:xlink="http://www.w3.org/1999/xlink">
    <title>device_mgmt_icn</title>
    <g id="Icon-development" stroke="none" stroke-width="1" fill="none" fill-rule="evenodd">
        <g id="device_mgmt_icn" transform="translate(-4.451028, -4.500000)">
            <g id="device" transform="translate(15.202796, 15.202796) rotate(-45.000000) translate(-15.202796, -15.202796) translate(3.702796, 5.202796)" stroke="#909090" stroke-width="1.25">
                <polyline id="Rectangle" points="3.5 20 3.5 4 19.5 4 19.5 20"></polyline>
                <line x1="8" y1="0.5" x2="8" y2="3.5" id="Line" stroke-linecap="square"></line>
                <line x1="15" y1="0.5" x2="15" y2="3.5" id="Line" stroke-linecap="square"></line>
                <line x1="3.58046925e-15" y1="16" x2="3" y2="16" id="Line" stroke-linecap="square"></line>
                <line x1="1.15601972e-13" y1="8" x2="3" y2="8" id="Line" stroke-linecap="square"></line>
                <line x1="20" y1="16" x2="23" y2="16" id="Line" stroke-linecap="square"></line>
                <line x1="20" y1="8" x2="23" y2="8" id="Line" stroke-linecap="square"></line>
                <circle id="Oval" cx="8" cy="8.5" r="1.5"></circle>
            </g>
            <path d="M27.2653351,21.502037 L28.1264576,21.0202504 C28.3813626,20.8776434 28.504948,20.5866896 28.4287145,20.3111732 C28.1203189,19.1964486 27.5135336,18.2000608 26.6964096,17.4072174 C26.4887213,17.2057173 26.1670477,17.1648826 25.9125754,17.3073323 L25.0530214,17.7884899 C24.7737961,17.5948217 24.4758401,17.4278699 24.1633418,17.2899815 L24.1633418,16.3266965 C24.163307,16.0414089 23.965307,15.7918156 23.6808449,15.7184742 C22.5515124,15.4273631 21.3520039,15.4269962 20.2212652,15.718448 C19.9368024,15.7917828 19.7387142,16.0413777 19.7387142,16.3266703 L19.7387142,17.2899553 C19.4262159,17.4278437 19.1282599,17.5947955 18.8490346,17.7884637 L17.9894806,17.3073061 C17.7350083,17.1648564 17.4133347,17.2056911 17.2056464,17.4071912 C16.3885224,18.2000346 15.7817371,19.1963962 15.4733415,20.311147 C15.397108,20.5866634 15.5206934,20.8776172 15.7755984,21.0202242 L16.6367209,21.502037 C16.6037287,21.8332478 16.6037287,22.1667685 16.6367209,22.4979793 L15.7755984,22.979766 C15.5206934,23.1223729 15.397108,23.4133268 15.4733415,23.6888431 C15.7817371,24.8035678 16.3885224,25.7999556 17.2056464,26.5927989 C17.4133347,26.7942991 17.7350083,26.8351338 17.9894806,26.6926841 L18.8490346,26.2115265 C19.1282541,26.4051959 19.4262112,26.5721395 19.7387142,26.7100087 L19.7387142,27.6732937 C19.738749,27.9585813 19.936749,28.2081746 20.2212111,28.2815159 C21.3505436,28.572627 22.5500521,28.5730202 23.6807908,28.2815421 C23.9652536,28.2082074 24.1633418,27.9586125 24.1633418,27.6733199 L24.1633418,26.7100349 C24.4758341,26.5721454 24.7737891,26.4052029 25.0530214,26.2115527 L25.9125754,26.6927103 C26.1670477,26.83516 26.4887213,26.7943253 26.6964096,26.5928252 C27.5135336,25.7999818 28.1203189,24.803594 28.4287145,23.6888693 C28.504948,23.413353 28.3813626,23.1223992 28.1264576,22.9797922 L27.2653351,22.4980055 C27.2983273,22.1664529 27.2983273,21.8335897 27.2653351,21.502037 Z M25.8407498,23.153746 L27.0257363,23.816563 C26.8125812,24.3745092 26.5030418,24.8932433 26.1103661,25.3505641 L24.9251091,24.6872229 C24.0601736,25.40529 23.9337488,25.475532 22.8653165,25.8412097 L22.8653165,27.1673941 C22.2601679,27.2675154 21.6418881,27.2675154 21.0367395,27.1673941 L21.0367395,25.8412097 C19.9684424,25.4755844 19.8415578,25.4050279 18.9769469,24.6872229 L17.7916899,25.3505641 C17.3990194,24.8932398 17.0894805,24.3745066 16.8763197,23.816563 L18.0613062,23.153746 C17.85497,22.0713117 17.8548618,21.9292551 18.0613062,20.8462966 L16.8763197,20.1834796 C17.0886053,19.6270739 17.3985153,19.1075977 17.7916899,18.6494522 L18.9769469,19.3127935 C19.8418824,18.5947264 19.9683343,18.5244582 21.0367395,18.1588067 L21.0367395,16.8326485 C21.6418881,16.7325272 22.2601679,16.7325272 22.8653165,16.8326485 L22.8653165,18.1588329 C23.9336136,18.5244582 24.0604982,18.5950147 24.9251091,19.3128197 L26.1103661,18.6494785 C26.5030423,19.1068087 26.8125816,19.6255515 27.0257363,20.1835058 L25.8407498,20.8463228 C26.0471131,21.9287833 26.0471942,22.0707875 25.8407498,23.153746 Z M21.951028,19.4838904 C20.5195197,19.4838904 19.3549235,20.612611 19.3549235,22.0000213 C19.3549235,23.3874316 20.5195197,24.5161522 21.951028,24.5161522 C23.3825363,24.5161522 24.5471325,23.3874316 24.5471325,22.0000213 C24.5471325,20.612611 23.3825363,19.4838904 21.951028,19.4838904 Z M21.951028,23.2580868 C21.2352603,23.2580868 20.6529757,22.6937396 20.6529757,22.0000213 C20.6529757,21.3063292 21.2352603,20.7419558 21.951028,20.7419558 C22.6667957,20.7419558 23.2490803,21.3063292 23.2490803,22.0000213 C23.2490803,22.6937396 22.6667957,23.2580868 21.951028,23.2580868 Z" id="cog" fill="#909090" fill-rule="nonzero"></path>
        </g>
    </g>
</svg>