<svg width="536" height="536" viewBox="0 0 536 536" fill="none" xmlns="http://www.w3.org/2000/svg">
<path d="M286 32C286 32 273.5 80.5 275.982 106C277.788 124.551 280.768 144.007 296.33 166.836C297.086 167.945 297.764 169.116 298.296 170.349C306.031 188.275 306.451 199.969 305 228.5C305 254.097 306.556 259.5 313.5 280.5C319.465 292.562 338.756 321.86 382.5 307.5C414.801 294.983 425.93 288.617 430.5 267C439.779 239.429 444.989 235.976 471.5 213" stroke="white" style="stroke:white;stroke-opacity:1;" stroke-width="27"/>
<path d="M344.503 80C339.394 96.4479 342.93 117.6 347.755 128.347C351.65 137.021 362.787 148.201 360.191 177.691C357.537 207.828 352.947 228.178 370.473 236.639C372.599 237.665 375 238.063 377.35 237.833C396.609 235.947 397.364 218.349 405.374 199.621C409.244 190.572 423.495 181.18 430 169.218" stroke="white" style="stroke:white;stroke-opacity:1;" stroke-width="27"/>
<path d="M25 272.494C31.923 268.978 45 267.5 82.1409 251.722C124.835 233.585 193.587 221.509 198 294.001C201.501 351.509 216 468.002 341.5 459.002" stroke="white" style="stroke:white;stroke-opacity:1;" stroke-width="27"/>
<path d="M158.5 426.5C131.732 388.321 168.087 328.49 132.847 302.936C131.978 302.306 131 301.757 130.01 301.341C102.789 289.919 83.1092 314.994 52 314.994" stroke="white" style="stroke:white;stroke-opacity:1;" stroke-width="27"/>
<rect x="536" y="268" width="379.009" height="379.009" rx="40" transform="rotate(135 536 268)" stroke="white" style="stroke:white;stroke-opacity:1;" stroke-width="27"/>
<path d="M211.498 59C200.106 122.5 230.4 163.9 240 189.5C249.6 215.1 254 251 254 274C254 304 262.187 347.977 303.021 360.5C340.521 372 357.489 374 389.989 360.5C408.989 352.608 426.021 340.5 464.021 337" stroke="white" style="stroke:white;stroke-opacity:1;" stroke-width="27"/>
</svg>
